# xmcd
#
# Track frame offsets:
#	150
#	23690
#	40289
#	54953
#	71816
#	89417
#	104056
#	130200
#	146882
#	163704
#	180388
#	189264
#
# Disc length: 2721 seconds
#
# Revision: 0
# Processed by: cddbd v1.5.2PL0 Copyright (c) Steve Scherf et al.
# Submitted via: audiograbber 1.83.01
#
DISCID=a70a9f0c
DTITLE=Nick Cave and the Bad Seeds - Kicking against the pricks
DYEAR=1986
DGENRE=
TTITLE0=Muddy waters
TTITLE1=I'm gonna kill that woman
TTITLE2=Sleeping annaleah
TTITLE3=Long black veil
TTITLE4=Hey Joe
TTITLE5=The singer
TTITLE6=All tomorrow's parties
TTITLE7=By the time i get to Phoenix
TTITLE8=The hammer song
TTITLE9=Someting's gotten hold of my heart
TTITLE10=Jesus met the woman at the well
TTITLE11=The carnival is over
EXTD=
EXTT0=
EXTT1=
EXTT2=
EXTT3=
EXTT4=
EXTT5=
EXTT6=
EXTT7=
EXTT8=
EXTT9=
EXTT10=
EXTT11=
PLAYORDER=
